STARTFONT 2.3
FONT -FontForge-Syncopate-Book-R-Normal--9-90-72-72-P-67-ISO10646-1
SIZE 9 72 72  2
FONTBOUNDINGBOX 17 12 -2 -3
COMMENT "Generated by fontforge, http://fontforge.sourceforge.net"
COMMENT "Copyright (c) 2010 by Brian J. Bonislawsky DBA Astigmatic (AOETI). All rights reserved. Available under the Apache 2.0 licence.http://www.apache.org/licenses/LICENSE-2.0.html"
STARTPROPERTIES 40
FOUNDRY "FontForge"
FAMILY_NAME "Syncopate"
WEIGHT_NAME "Book"
SLANT "R"
SETWIDTH_NAME "Normal"
ADD_STYLE_NAME ""
PIXEL_SIZE 9
POINT_SIZE 90
RESOLUTION_X 72
RESOLUTION_Y 72
SPACING "P"
AVERAGE_WIDTH 67
CHARSET_REGISTRY "ISO10646"
CHARSET_ENCODING "1"
FONTNAME_REGISTRY ""
CHARSET_COLLECTIONS "ISO8859-2 ISO8859-9 ISO8859-4 ISO10646-1"
BITS_PER_PIXEL 2
FONT_NAME "Syncopate-Regular"
FACE_NAME "Syncopate Regular"
COPYRIGHT "Copyright (c) 2010 by Brian J. Bonislawsky DBA Astigmatic (AOETI). All rights reserved. Available under the Apache 2.0 licence.http://www.apache.org/licenses/LICENSE-2.0.html"
FONT_VERSION "001.001"
FONT_ASCENT 7
FONT_DESCENT 2
UNDERLINE_POSITION -1
UNDERLINE_THICKNESS 1
X_HEIGHT 5
CAP_HEIGHT 5
RAW_ASCENT 799
RAW_DESCENT 200
NORM_SPACE 3
RELATIVE_WEIGHT 40
RELATIVE_SETWIDTH 70
SUPERSCRIPT_X 0
SUPERSCRIPT_Y 2
SUPERSCRIPT_SIZE 1
SUBSCRIPT_X 0
SUBSCRIPT_Y 2
SUBSCRIPT_SIZE 1
AVG_LOWERCASE_WIDTH 76
AVG_UPPERCASE_WIDTH 73
ENDPROPERTIES
CHARS 370
STARTCHAR space
ENCODING 32
SWIDTH 375 0
DWIDTH 3 0
BBX 1 1 0 0
BITMAP
00
ENDCHAR
STARTCHAR exclam
ENCODING 33
SWIDTH 274 0
DWIDTH 2 0
BBX 1 6 1 0
BITMAP
80
80
40
40
00
80
ENDCHAR
STARTCHAR quotedbl
ENCODING 34
SWIDTH 290 0
DWIDTH 3 0
BBX 3 2 0 4
BITMAP
94
54
ENDCHAR
STARTCHAR numbersign
ENCODING 35
SWIDTH 701 0
DWIDTH 6 0
BBX 6 6 0 0
BITMAP
0440
0440
3FF0
1440
BFD0
1100
ENDCHAR
STARTCHAR dollar
ENCODING 36
SWIDTH 767 0
DWIDTH 7 0
BBX 6 8 0 -1
BITMAP
0100
2FE0
6100
2A00
06A0
0120
7FE0
0100
ENDCHAR
STARTCHAR percent
ENCODING 37
SWIDTH 992 0
DWIDTH 9 0
BBX 8 6 0 0
BITMAP
3D04
5220
3D40
016E
0552
042E
ENDCHAR
STARTCHAR ampersand
ENCODING 38
SWIDTH 926 0
DWIDTH 8 0
BBX 8 6 0 0
BITMAP
0BD0
1450
0900
1245
6058
2FE9
ENDCHAR
STARTCHAR quotesingle
ENCODING 39
SWIDTH 140 0
DWIDTH 1 0
BBX 1 2 0 4
BITMAP
80
40
ENDCHAR
STARTCHAR parenleft
ENCODING 40
SWIDTH 420 0
DWIDTH 4 0
BBX 3 8 0 -1
BITMAP
08
20
20
50
50
20
20
08
ENDCHAR
STARTCHAR parenright
ENCODING 41
SWIDTH 420 0
DWIDTH 4 0
BBX 2 8 1 -1
BITMAP
80
50
20
20
20
20
50
80
ENDCHAR
STARTCHAR asterisk
ENCODING 42
SWIDTH 503 0
DWIDTH 5 0
BBX 3 4 1 2
BITMAP
10
A4
64
10
ENDCHAR
STARTCHAR plus
ENCODING 43
SWIDTH 634 0
DWIDTH 6 0
BBX 5 5 0 1
BITMAP
0400
0400
7FC0
0400
0400
ENDCHAR
STARTCHAR comma
ENCODING 44
SWIDTH 185 0
DWIDTH 2 0
BBX 1 2 0 -1
BITMAP
80
80
ENDCHAR
STARTCHAR hyphen
ENCODING 45
SWIDTH 540 0
DWIDTH 5 0
BBX 4 1 0 3
BITMAP
7F
ENDCHAR
STARTCHAR period
ENCODING 46
SWIDTH 185 0
DWIDTH 2 0
BBX 2 1 0 0
BITMAP
90
ENDCHAR
STARTCHAR slash
ENCODING 47
SWIDTH 500 0
DWIDTH 5 0
BBX 4 6 0 0
BITMAP
02
05
08
14
20
50
ENDCHAR
STARTCHAR zero
ENCODING 48
SWIDTH 833 0
DWIDTH 8 0
BBX 7 6 0 0
BITMAP
1BE0
2428
5008
5008
2418
1BE0
ENDCHAR
STARTCHAR one
ENCODING 49
SWIDTH 339 0
DWIDTH 3 0
BBX 2 6 0 0
BITMAP
F0
20
20
20
20
20
ENDCHAR
STARTCHAR two
ENCODING 50
SWIDTH 728 0
DWIDTH 7 0
BBX 6 6 0 0
BITMAP
BF80
0060
0010
0040
1500
BFF0
ENDCHAR
STARTCHAR three
ENCODING 51
SWIDTH 726 0
DWIDTH 7 0
BBX 6 6 0 0
BITMAP
BF90
0060
0F80
0060
0060
BF80
ENDCHAR
STARTCHAR four
ENCODING 52
SWIDTH 769 0
DWIDTH 7 0
BBX 7 6 0 0
BITMAP
0180
0940
6040
BFF8
0040
0040
ENDCHAR
STARTCHAR five
ENCODING 53
SWIDTH 738 0
DWIDTH 7 0
BBX 6 6 0 0
BITMAP
7FE0
5000
7F90
0060
0060
7F90
ENDCHAR
STARTCHAR six
ENCODING 54
SWIDTH 772 0
DWIDTH 7 0
BBX 7 6 0 0
BITMAP
0BF0
2400
5BE0
6014
2014
1BE0
ENDCHAR
STARTCHAR seven
ENCODING 55
SWIDTH 669 0
DWIDTH 6 0
BBX 6 6 0 0
BITMAP
FFE0
0050
0040
0200
0500
1400
ENDCHAR
STARTCHAR eight
ENCODING 56
SWIDTH 793 0
DWIDTH 7 0
BBX 7 6 0 0
BITMAP
1FE0
2420
1FD0
6464
5018
2FE0
ENDCHAR
STARTCHAR nine
ENCODING 57
SWIDTH 776 0
DWIDTH 7 0
BBX 7 6 0 0
BITMAP
2F90
5020
5024
2FA4
0060
3F80
ENDCHAR
STARTCHAR colon
ENCODING 58
SWIDTH 245 0
DWIDTH 2 0
BBX 2 4 0 0
BITMAP
50
00
00
50
ENDCHAR
STARTCHAR semicolon
ENCODING 59
SWIDTH 234 0
DWIDTH 2 0
BBX 2 5 0 -1
BITMAP
50
00
00
50
80
ENDCHAR
STARTCHAR less
ENCODING 60
SWIDTH 634 0
DWIDTH 6 0
BBX 5 5 0 1
BITMAP
0180
1A40
6000
1A40
0180
ENDCHAR
STARTCHAR equal
ENCODING 61
SWIDTH 634 0
DWIDTH 6 0
BBX 5 3 0 2
BITMAP
7FC0
0000
7FC0
ENDCHAR
STARTCHAR greater
ENCODING 62
SWIDTH 634 0
DWIDTH 6 0
BBX 5 5 0 1
BITMAP
6400
1A40
01C0
1A40
6400
ENDCHAR
STARTCHAR question
ENCODING 63
SWIDTH 568 0
DWIDTH 5 0
BBX 5 6 0 0
BITMAP
7E00
0140
1A00
2400
0000
2000
ENDCHAR
STARTCHAR at
ENCODING 64
SWIDTH 1016 0
DWIDTH 9 0
BBX 9 6 0 0
BITMAP
06F900
290640
52F540
53EE00
240000
0BF800
ENDCHAR
STARTCHAR A
ENCODING 65
SWIDTH 812 0
DWIDTH 7 0
BBX 7 6 0 0
BITMAP
0340
0580
0850
1020
3FF4
9008
ENDCHAR
STARTCHAR B
ENCODING 66
SWIDTH 836 0
DWIDTH 8 0
BBX 6 6 1 0
BITMAP
FFD0
8050
FFD0
8020
8020
FFD0
ENDCHAR
STARTCHAR C
ENCODING 67
SWIDTH 869 0
DWIDTH 8 0
BBX 8 6 0 0
BITMAP
0BFD
2400
5000
5000
2400
0BFD
ENDCHAR
STARTCHAR D
ENCODING 68
SWIDTH 910 0
DWIDTH 8 0
BBX 7 6 1 0
BITMAP
FF90
8024
8008
8008
8064
FFD0
ENDCHAR
STARTCHAR E
ENCODING 69
SWIDTH 754 0
DWIDTH 7 0
BBX 5 6 1 0
BITMAP
FFC0
8000
FF80
8000
8000
FFC0
ENDCHAR
STARTCHAR F
ENCODING 70
SWIDTH 687 0
DWIDTH 6 0
BBX 5 6 1 0
BITMAP
FF80
8000
8000
FF80
8000
8000
ENDCHAR
STARTCHAR G
ENCODING 71
SWIDTH 910 0
DWIDTH 8 0
BBX 8 6 0 0
BITMAP
0BFD
2400
5000
50BD
2405
0BF9
ENDCHAR
STARTCHAR H
ENCODING 72
SWIDTH 949 0
DWIDTH 9 0
BBX 7 6 1 0
BITMAP
8008
8008
FFF8
8008
8008
8008
ENDCHAR
STARTCHAR I
ENCODING 73
SWIDTH 287 0
DWIDTH 3 0
BBX 1 6 1 0
BITMAP
80
80
80
80
80
80
ENDCHAR
STARTCHAR J
ENCODING 74
SWIDTH 590 0
DWIDTH 5 0
BBX 5 6 0 0
BITMAP
0140
0140
0140
0140
0240
FE00
ENDCHAR
STARTCHAR K
ENCODING 75
SWIDTH 806 0
DWIDTH 7 0
BBX 6 6 1 0
BITMAP
8050
8500
A400
9400
8600
8050
ENDCHAR
STARTCHAR L
ENCODING 76
SWIDTH 701 0
DWIDTH 6 0
BBX 5 6 1 0
BITMAP
8000
8000
8000
8000
8000
FFC0
ENDCHAR
STARTCHAR M
ENCODING 77
SWIDTH 1139 0
DWIDTH 10 0
BBX 9 6 1 0
BITMAP
C00240
A00640
940940
882140
815140
818140
ENDCHAR
STARTCHAR N
ENCODING 78
SWIDTH 936 0
DWIDTH 8 0
BBX 7 6 1 0
BITMAP
D004
A404
8904
8244
8094
8024
ENDCHAR
STARTCHAR O
ENCODING 79
SWIDTH 983 0
DWIDTH 9 0
BBX 9 6 0 0
BITMAP
0BF800
240600
500140
500140
240600
0BF800
ENDCHAR
STARTCHAR P
ENCODING 80
SWIDTH 818 0
DWIDTH 7 0
BBX 6 6 1 0
BITMAP
FF90
8020
8020
FF90
8000
8000
ENDCHAR
STARTCHAR Q
ENCODING 81
SWIDTH 983 0
DWIDTH 9 0
BBX 9 6 0 0
BITMAP
0BF800
240600
500140
500140
242A00
0BFA80
ENDCHAR
STARTCHAR R
ENCODING 82
SWIDTH 833 0
DWIDTH 8 0
BBX 6 6 1 0
BITMAP
FF90
8060
FF90
8040
8050
8020
ENDCHAR
STARTCHAR S
ENCODING 83
SWIDTH 787 0
DWIDTH 7 0
BBX 7 6 0 0
BITMAP
2FF0
6000
1A40
0060
0014
7FE0
ENDCHAR
STARTCHAR T
ENCODING 84
SWIDTH 708 0
DWIDTH 6 0
BBX 7 6 0 0
BITMAP
BFF4
0100
0100
0100
0100
0100
ENDCHAR
STARTCHAR U
ENCODING 85
SWIDTH 891 0
DWIDTH 8 0
BBX 6 6 1 0
BITMAP
8010
8010
8010
8020
9060
6F90
ENDCHAR
STARTCHAR V
ENCODING 86
SWIDTH 817 0
DWIDTH 7 0
BBX 7 6 0 0
BITMAP
4008
2014
2420
0850
0980
0340
ENDCHAR
STARTCHAR W
ENCODING 87
SWIDTH 1266 0
DWIDTH 11 0
BBX 11 6 0 0
BITMAP
402408
205804
208820
148120
090250
060180
ENDCHAR
STARTCHAR X
ENCODING 88
SWIDTH 821 0
DWIDTH 7 0
BBX 7 6 0 0
BITMAP
2014
0850
0240
0680
1450
6014
ENDCHAR
STARTCHAR Y
ENCODING 89
SWIDTH 763 0
DWIDTH 7 0
BBX 7 6 0 0
BITMAP
5024
1490
0A40
0200
0200
0200
ENDCHAR
STARTCHAR Z
ENCODING 90
SWIDTH 728 0
DWIDTH 7 0
BBX 6 6 0 0
BITMAP
7FE0
0040
0100
0400
1000
7FF0
ENDCHAR
STARTCHAR bracketleft
ENCODING 91
SWIDTH 409 0
DWIDTH 4 0
BBX 3 8 1 -1
BITMAP
F4
80
80
80
80
80
80
F4
ENDCHAR
STARTCHAR backslash
ENCODING 92
SWIDTH 500 0
DWIDTH 5 0
BBX 4 6 0 0
BITMAP
50
20
14
08
05
02
ENDCHAR
STARTCHAR bracketright
ENCODING 93
SWIDTH 409 0
DWIDTH 4 0
BBX 3 8 0 -1
BITMAP
B8
08
08
08
08
08
08
B8
ENDCHAR
STARTCHAR asciicircum
ENCODING 94
SWIDTH 459 0
DWIDTH 4 0
BBX 4 3 0 3
BITMAP
18
28
42
ENDCHAR
STARTCHAR underscore
ENCODING 95
SWIDTH 500 0
DWIDTH 5 0
BBX 5 1 0 -2
BITMAP
FF80
ENDCHAR
STARTCHAR grave
ENCODING 96
SWIDTH 527 0
DWIDTH 5 0
BBX 2 2 1 5
BITMAP
80
60
ENDCHAR
STARTCHAR a
ENCODING 97
SWIDTH 888 0
DWIDTH 8 0
BBX 7 6 0 0
BITMAP
3FE4
0008
06BC
2508
501C
2FE8
ENDCHAR
STARTCHAR b
ENCODING 98
SWIDTH 836 0
DWIDTH 8 0
BBX 6 6 1 0
BITMAP
FFD0
8050
FFD0
8020
8020
FFD0
ENDCHAR
STARTCHAR c
ENCODING 99
SWIDTH 869 0
DWIDTH 8 0
BBX 8 6 0 0
BITMAP
0BFD
2400
5000
5000
2400
0BFD
ENDCHAR
STARTCHAR d
ENCODING 100
SWIDTH 910 0
DWIDTH 8 0
BBX 7 6 1 0
BITMAP
FF90
8024
8008
8008
8064
FFD0
ENDCHAR
STARTCHAR e
ENCODING 101
SWIDTH 910 0
DWIDTH 8 0
BBX 8 6 0 0
BITMAP
0BE4
2405
7FFE
5000
2400
0BFC
ENDCHAR
STARTCHAR f
ENCODING 102
SWIDTH 817 0
DWIDTH 7 0
BBX 6 6 1 0
BITMAP
6FE0
9000
8000
FFE0
8000
8000
ENDCHAR
STARTCHAR g
ENCODING 103
SWIDTH 910 0
DWIDTH 8 0
BBX 8 6 0 0
BITMAP
0BFD
2400
5000
50BD
2405
0BF9
ENDCHAR
STARTCHAR h
ENCODING 104
SWIDTH 949 0
DWIDTH 9 0
BBX 7 6 1 0
BITMAP
8008
8008
FFF8
8008
8008
8008
ENDCHAR
STARTCHAR i
ENCODING 105
SWIDTH 287 0
DWIDTH 3 0
BBX 1 6 1 0
BITMAP
80
80
80
80
80
80
ENDCHAR
STARTCHAR j
ENCODING 106
SWIDTH 590 0
DWIDTH 5 0
BBX 5 6 0 0
BITMAP
0140
0140
0140
0140
0240
FE00
ENDCHAR
STARTCHAR k
ENCODING 107
SWIDTH 867 0
DWIDTH 8 0
BBX 6 6 1 0
BITMAP
8020
8180
FE00
8190
8020
8010
ENDCHAR
STARTCHAR l
ENCODING 108
SWIDTH 709 0
DWIDTH 6 0
BBX 6 6 1 0
BITMAP
8000
8000
8000
8000
8000
7FD0
ENDCHAR
STARTCHAR m
ENCODING 109
SWIDTH 1246 0
DWIDTH 11 0
BBX 10 6 1 0
BITMAP
AF5F80
D1E080
808050
808050
808050
808050
ENDCHAR
STARTCHAR n
ENCODING 110
SWIDTH 933 0
DWIDTH 8 0
BBX 7 6 1 0
BITMAP
9BE0
E424
8004
8004
8004
8004
ENDCHAR
STARTCHAR o
ENCODING 111
SWIDTH 983 0
DWIDTH 9 0
BBX 9 6 0 0
BITMAP
0BF800
240600
500140
500140
240600
0BF800
ENDCHAR
STARTCHAR p
ENCODING 112
SWIDTH 818 0
DWIDTH 7 0
BBX 6 6 1 0
BITMAP
FF90
8020
8020
FF90
8000
8000
ENDCHAR
STARTCHAR q
ENCODING 113
SWIDTH 983 0
DWIDTH 9 0
BBX 9 6 0 0
BITMAP
0BF800
240600
500140
500140
240600
0BFA80
ENDCHAR
STARTCHAR r
ENCODING 114
SWIDTH 609 0
DWIDTH 5 0
BBX 5 6 1 0
BITMAP
9B40
E400
8000
8000
8000
8000
ENDCHAR
STARTCHAR s
ENCODING 115
SWIDTH 787 0
DWIDTH 7 0
BBX 7 6 0 0
BITMAP
2FF0
6000
1A40
0060
0014
7FE0
ENDCHAR
STARTCHAR t
ENCODING 116
SWIDTH 708 0
DWIDTH 6 0
BBX 7 6 0 0
BITMAP
BFF4
0100
0100
0100
0100
0100
ENDCHAR
STARTCHAR u
ENCODING 117
SWIDTH 931 0
DWIDTH 8 0
BBX 7 6 1 0
BITMAP
8014
8014
8014
8014
8074
7F94
ENDCHAR
STARTCHAR v
ENCODING 118
SWIDTH 817 0
DWIDTH 7 0
BBX 7 6 0 0
BITMAP
4008
2014
2420
0850
0980
0340
ENDCHAR
STARTCHAR w
ENCODING 119
SWIDTH 1266 0
DWIDTH 11 0
BBX 11 6 0 0
BITMAP
402408
205804
208820
148120
090250
060180
ENDCHAR
STARTCHAR x
ENCODING 120
SWIDTH 821 0
DWIDTH 7 0
BBX 7 6 0 0
BITMAP
2014
0850
0240
0680
1450
6014
ENDCHAR
STARTCHAR y
ENCODING 121
SWIDTH 911 0
DWIDTH 8 0
BBX 8 6 0 0
BITMAP
5005
5005
241D
1BE5
0018
7FE4
ENDCHAR
STARTCHAR z
ENCODING 122
SWIDTH 728 0
DWIDTH 7 0
BBX 6 6 0 0
BITMAP
7FE0
0040
0100
0400
1000
7FF0
ENDCHAR
STARTCHAR braceleft
ENCODING 123
SWIDTH 386 0
DWIDTH 3 0
BBX 3 8 0 -1
BITMAP
1C
20
20
20
90
20
20
1C
ENDCHAR
STARTCHAR bar
ENCODING 124
SWIDTH 259 0
DWIDTH 2 0
BBX 1 9 1 -2
BITMAP
40
40
40
40
40
40
40
40
40
ENDCHAR
STARTCHAR braceright
ENCODING 125
SWIDTH 386 0
DWIDTH 3 0
BBX 4 8 0 -1
BITMAP
A0
14
14
14
0D
14
14
B0
ENDCHAR
STARTCHAR asciitilde
ENCODING 126
SWIDTH 634 0
DWIDTH 6 0
BBX 5 2 0 3
BITMAP
3940
4780
ENDCHAR
STARTCHAR nonbreakingspace
ENCODING 160
SWIDTH 375 0
DWIDTH 3 0
BBX 1 1 0 0
BITMAP
00
ENDCHAR
STARTCHAR exclamdown
ENCODING 161
SWIDTH 274 0
DWIDTH 2 0
BBX 1 6 1 0
BITMAP
80
00
40
40
80
80
ENDCHAR
STARTCHAR cent
ENCODING 162
SWIDTH 736 0
DWIDTH 7 0
BBX 7 7 0 -1
BITMAP
0100
1BF4
6100
4100
6100
1BF4
0100
ENDCHAR
STARTCHAR sterling
ENCODING 163
SWIDTH 792 0
DWIDTH 7 0
BBX 7 6 0 0
BITMAP
07F4
0800
0400
7FD0
1400
7FF8
ENDCHAR
STARTCHAR currency
ENCODING 164
SWIDTH 560 0
DWIDTH 5 0
BBX 3 3 1 1
BITMAP
BC
88
B8
ENDCHAR
STARTCHAR yen
ENCODING 165
SWIDTH 811 0
DWIDTH 7 0
BBX 6 6 1 0
BITMAP
8050
1140
FBD0
0900
FFD0
0800
ENDCHAR
STARTCHAR brokenbar
ENCODING 166
SWIDTH 259 0
DWIDTH 2 0
BBX 1 8 1 -2
BITMAP
40
40
40
00
00
40
40
40
ENDCHAR
STARTCHAR section
ENCODING 167
SWIDTH 500 0
DWIDTH 5 0
BBX 4 6 0 0
BITMAP
3E
38
56
66
1D
7D
ENDCHAR
STARTCHAR dieresis
ENCODING 168
SWIDTH 527 0
DWIDTH 5 0
BBX 3 1 1 5
BITMAP
88
ENDCHAR
STARTCHAR copyright
ENCODING 169
SWIDTH 770 0
DWIDTH 7 0
BBX 7 6 0 0
BITMAP
1B90
2460
4B84
5404
2FE0
1B90
ENDCHAR
STARTCHAR ordfeminine
ENCODING 170
SWIDTH 497 0
DWIDTH 4 0
BBX 4 5 0 1
BITMAP
7E
6F
BF
00
BF
ENDCHAR
STARTCHAR guillemotleft
ENCODING 171
SWIDTH 440 0
DWIDTH 4 0
BBX 4 3 0 2
BITMAP
25
88
25
ENDCHAR
STARTCHAR logicalnot
ENCODING 172
SWIDTH 634 0
DWIDTH 6 0
BBX 5 2 0 2
BITMAP
7FC0
0040
ENDCHAR
STARTCHAR uni00AD
ENCODING 173
SWIDTH 540 0
DWIDTH 5 0
BBX 4 1 0 3
BITMAP
7F
ENDCHAR
STARTCHAR registered
ENCODING 174
SWIDTH 600 0
DWIDTH 5 0
BBX 5 4 0 2
BITMAP
2E40
5E80
5E80
2F40
ENDCHAR
STARTCHAR macron
ENCODING 175
SWIDTH 527 0
DWIDTH 5 0
BBX 3 1 1 5
BITMAP
B8
ENDCHAR
STARTCHAR degree
ENCODING 176
SWIDTH 373 0
DWIDTH 3 0
BBX 3 2 0 4
BITMAP
78
78
ENDCHAR
STARTCHAR plusminus
ENCODING 177
SWIDTH 634 0
DWIDTH 6 0
BBX 5 6 0 0
BITMAP
0400
0400
7FC0
0400
0400
7FC0
ENDCHAR
STARTCHAR twosuperior
ENCODING 178
SWIDTH 511 0
DWIDTH 5 0
BBX 4 4 0 2
BITMAP
BE
02
04
BF
ENDCHAR
STARTCHAR threesuperior
ENCODING 179
SWIDTH 512 0
DWIDTH 5 0
BBX 4 4 0 2
BITMAP
BE
2D
02
BE
ENDCHAR
STARTCHAR acute
ENCODING 180
SWIDTH 527 0
DWIDTH 5 0
BBX 2 2 2 5
BITMAP
20
80
ENDCHAR
STARTCHAR micro
ENCODING 181
SWIDTH 705 0
DWIDTH 6 0
BBX 6 6 0 -2
BITMAP
2050
1050
21C0
6E80
4000
8000
ENDCHAR
STARTCHAR paragraph
ENCODING 182
SWIDTH 585 0
DWIDTH 5 0
BBX 5 6 0 0
BITMAP
2F40
7D40
2D40
0540
0540
0540
ENDCHAR
STARTCHAR periodcentered
ENCODING 183
SWIDTH 185 0
DWIDTH 2 0
BBX 2 1 0 3
BITMAP
90
ENDCHAR
STARTCHAR cedilla
ENCODING 184
SWIDTH 527 0
DWIDTH 5 0
BBX 3 2 1 -2
BITMAP
34
B4
ENDCHAR
STARTCHAR onesuperior
ENCODING 185
SWIDTH 261 0
DWIDTH 2 0
BBX 2 4 0 2
BITMAP
E0
20
20
20
ENDCHAR
STARTCHAR ordmasculine
ENCODING 186
SWIDTH 520 0
DWIDTH 5 0
BBX 5 5 0 1
BITMAP
7E00
8140
7E00
0000
BF40
ENDCHAR
STARTCHAR guillemotright
ENCODING 187
SWIDTH 440 0
DWIDTH 4 0
BBX 4 3 0 2
BITMAP
58
22
58
ENDCHAR
STARTCHAR onequarter
ENCODING 188
SWIDTH 857 0
DWIDTH 8 0
BBX 8 6 0 0
BITMAP
A020
1080
1140
0554
05FD
2004
ENDCHAR
STARTCHAR onehalf
ENCODING 189
SWIDTH 937 0
DWIDTH 8 0
BBX 8 6 0 0
BITMAP
A020
1080
1140
057D
0401
207E
ENDCHAR
STARTCHAR threequarters
ENCODING 190
SWIDTH 978 0
DWIDTH 9 0
BBX 9 6 0 0
BITMAP
7D0800
2C1000
BD5000
015500
017F40
080100
ENDCHAR
STARTCHAR questiondown
ENCODING 191
SWIDTH 568 0
DWIDTH 5 0
BBX 5 6 0 0
BITMAP
0200
0000
0200
2900
5000
2F80
ENDCHAR
STARTCHAR Agrave
ENCODING 192
SWIDTH 812 0
DWIDTH 7 0
BBX 7 9 0 0
BITMAP
0800
0200
0000
0340
0580
0850
1020
3FF4
9008
ENDCHAR
STARTCHAR Aacute
ENCODING 193
SWIDTH 812 0
DWIDTH 7 0
BBX 7 9 0 0
BITMAP
0080
0240
0000
0340
0580
0850
1020
3FF4
9008
ENDCHAR
STARTCHAR Acircumflex
ENCODING 194
SWIDTH 812 0
DWIDTH 7 0
BBX 7 9 0 0
BITMAP
0240
0440
0000
0340
0580
0850
1020
3FF4
9008
ENDCHAR
STARTCHAR Atilde
ENCODING 195
SWIDTH 812 0
DWIDTH 7 0
BBX 7 8 0 0
BITMAP
0BC0
0000
0340
0580
0850
1020
3FF4
9008
ENDCHAR
STARTCHAR Adieresis
ENCODING 196
SWIDTH 812 0
DWIDTH 7 0
BBX 7 8 0 0
BITMAP
0880
0000
0340
0580
0850
1020
3FF4
9008
ENDCHAR
STARTCHAR Aring
ENCODING 197
SWIDTH 812 0
DWIDTH 7 0
BBX 7 9 0 0
BITMAP
0780
0780
0000
0340
0580
0850
1020
3FF4
9008
ENDCHAR
STARTCHAR AE
ENCODING 198
SWIDTH 1172 0
DWIDTH 11 0
BBX 10 6 0 0
BITMAP
01FFE0
025000
097FE0
145000
3FD000
907FF0
ENDCHAR
STARTCHAR Ccedilla
ENCODING 199
SWIDTH 869 0
DWIDTH 8 0
BBX 8 8 0 -2
BITMAP
0BFD
2400
5000
5000
2400
0BFD
00C0
02C0
ENDCHAR
STARTCHAR Egrave
ENCODING 200
SWIDTH 754 0
DWIDTH 7 0
BBX 5 9 1 0
BITMAP
2000
0800
0000
FFC0
8000
FF80
8000
8000
FFC0
ENDCHAR
STARTCHAR Eacute
ENCODING 201
SWIDTH 754 0
DWIDTH 7 0
BBX 5 9 1 0
BITMAP
0200
0800
0000
FFC0
8000
FF80
8000
8000
FFC0
ENDCHAR
STARTCHAR Ecircumflex
ENCODING 202
SWIDTH 754 0
DWIDTH 7 0
BBX 5 9 1 0
BITMAP
0800
1100
0000
FFC0
8000
FF80
8000
8000
FFC0
ENDCHAR
STARTCHAR Edieresis
ENCODING 203
SWIDTH 754 0
DWIDTH 7 0
BBX 5 8 1 0
BITMAP
2200
0000
FFC0
8000
FF80
8000
8000
FFC0
ENDCHAR
STARTCHAR Igrave
ENCODING 204
SWIDTH 287 0
DWIDTH 3 0
BBX 2 9 0 0
BITMAP
80
60
00
20
20
20
20
20
20
ENDCHAR
STARTCHAR Iacute
ENCODING 205
SWIDTH 287 0
DWIDTH 3 0
BBX 2 9 1 0
BITMAP
20
80
00
80
80
80
80
80
80
ENDCHAR
STARTCHAR Icircumflex
ENCODING 206
SWIDTH 287 0
DWIDTH 3 0
BBX 3 9 0 0
BITMAP
60
44
00
20
20
20
20
20
20
ENDCHAR
STARTCHAR Idieresis
ENCODING 207
SWIDTH 287 0
DWIDTH 3 0
BBX 3 8 0 0
BITMAP
88
00
20
20
20
20
20
20
ENDCHAR
STARTCHAR Eth
ENCODING 208
SWIDTH 910 0
DWIDTH 8 0
BBX 8 6 0 0
BITMAP
3FE4
2019
FF02
2002
2019
3FE4
ENDCHAR
STARTCHAR Ntilde
ENCODING 209
SWIDTH 936 0
DWIDTH 8 0
BBX 7 8 1 0
BITMAP
1F80
0000
D004
A404
8904
8244
8094
8024
ENDCHAR
STARTCHAR Ograve
ENCODING 210
SWIDTH 983 0
DWIDTH 9 0
BBX 9 9 0 0
BITMAP
020000
008000
000000
0BF800
240600
500140
500140
240600
0BF800
ENDCHAR
STARTCHAR Oacute
ENCODING 211
SWIDTH 983 0
DWIDTH 9 0
BBX 9 9 0 0
BITMAP
002000
008000
000000
0BF800
240600
500140
500140
240600
0BF800
ENDCHAR
STARTCHAR Ocircumflex
ENCODING 212
SWIDTH 983 0
DWIDTH 9 0
BBX 9 9 0 0
BITMAP
008000
011000
000000
0BF800
240600
500140
500140
240600
0BF800
ENDCHAR
STARTCHAR Otilde
ENCODING 213
SWIDTH 983 0
DWIDTH 9 0
BBX 9 8 0 0
BITMAP
03E000
000000
0BF800
240600
500140
500140
240600
0BF800
ENDCHAR
STARTCHAR Odieresis
ENCODING 214
SWIDTH 983 0
DWIDTH 9 0
BBX 9 8 0 0
BITMAP
022000
000000
0BF800
240600
500140
500140
240600
0BF800
ENDCHAR
STARTCHAR multiply
ENCODING 215
SWIDTH 634 0
DWIDTH 6 0
BBX 4 4 1 1
BITMAP
81
28
28
85
ENDCHAR
STARTCHAR Oslash
ENCODING 216
SWIDTH 983 0
DWIDTH 9 0
BBX 9 8 0 -1
BITMAP
000500
0BF800
241600
505140
514140
250600
0FF800
140000
ENDCHAR
STARTCHAR Ugrave
ENCODING 217
SWIDTH 891 0
DWIDTH 8 0
BBX 6 9 1 0
BITMAP
1400
0500
0000
8010
8010
8010
8020
9060
6F90
ENDCHAR
STARTCHAR Uacute
ENCODING 218
SWIDTH 891 0
DWIDTH 8 0
BBX 6 9 1 0
BITMAP
0140
0500
0000
8010
8010
8010
8020
9060
6F90
ENDCHAR
STARTCHAR Ucircumflex
ENCODING 219
SWIDTH 891 0
DWIDTH 8 0
BBX 6 9 1 0
BITMAP
0500
1040
0000
8010
8010
8010
8020
9060
6F90
ENDCHAR
STARTCHAR Udieresis
ENCODING 220
SWIDTH 891 0
DWIDTH 8 0
BBX 6 8 1 0
BITMAP
1540
0000
8010
8010
8010
8020
9060
6F90
ENDCHAR
STARTCHAR Yacute
ENCODING 221
SWIDTH 763 0
DWIDTH 7 0
BBX 7 9 0 0
BITMAP
0080
0200
0000
5024
1490
0A40
0200
0200
0200
ENDCHAR
STARTCHAR Thorn
ENCODING 222
SWIDTH 787 0
DWIDTH 7 0
BBX 6 6 1 0
BITMAP
8000
FF80
8050
8050
FF80
8000
ENDCHAR
STARTCHAR germandbls
ENCODING 223
SWIDTH 863 0
DWIDTH 8 0
BBX 7 6 0 0
BITMAP
1BE4
2418
57F4
5018
5008
5BF4
ENDCHAR
STARTCHAR agrave
ENCODING 224
SWIDTH 888 0
DWIDTH 8 0
BBX 7 9 0 0
BITMAP
0500
0140
0000
3FE4
0008
06BC
2508
501C
2FE8
ENDCHAR
STARTCHAR aacute
ENCODING 225
SWIDTH 888 0
DWIDTH 8 0
BBX 7 9 0 0
BITMAP
0050
0140
0000
3FE4
0008
06BC
2508
501C
2FE8
ENDCHAR
STARTCHAR acircumflex
ENCODING 226
SWIDTH 888 0
DWIDTH 8 0
BBX 7 9 0 0
BITMAP
0140
0410
0000
3FE4
0008
06BC
2508
501C
2FE8
ENDCHAR
STARTCHAR atilde
ENCODING 227
SWIDTH 888 0
DWIDTH 8 0
BBX 7 8 0 0
BITMAP
07D0
0000
3FE4
0008
06BC
2508
501C
2FE8
ENDCHAR
STARTCHAR adieresis
ENCODING 228
SWIDTH 888 0
DWIDTH 8 0
BBX 7 8 0 0
BITMAP
0540
0000
3FE4
0008
06BC
2508
501C
2FE8
ENDCHAR
STARTCHAR aring
ENCODING 229
SWIDTH 888 0
DWIDTH 8 0
BBX 7 9 0 0
BITMAP
0380
03C0
0000
3FE4
0008
06BC
2508
501C
2FE8
ENDCHAR
STARTCHAR ae
ENCODING 230
SWIDTH 1551 0
DWIDTH 14 0
BBX 14 6 0 0
BITMAP
3FE5BE40
00090040
06BFFFD0
25050000
501B4000
2FE5BFC0
ENDCHAR
STARTCHAR ccedilla
ENCODING 231
SWIDTH 869 0
DWIDTH 8 0
BBX 8 8 0 -2
BITMAP
0BFD
2400
5000
5000
2400
0BFD
00C0
02C0
ENDCHAR
STARTCHAR egrave
ENCODING 232
SWIDTH 910 0
DWIDTH 8 0
BBX 8 9 0 0
BITMAP
0500
0140
0000
0BE4
2405
7FFE
5000
2400
0BFC
ENDCHAR
STARTCHAR eacute
ENCODING 233
SWIDTH 910 0
DWIDTH 8 0
BBX 8 9 0 0
BITMAP
0050
0140
0000
0BE4
2405
7FFE
5000
2400
0BFC
ENDCHAR
STARTCHAR ecircumflex
ENCODING 234
SWIDTH 910 0
DWIDTH 8 0
BBX 8 9 0 0
BITMAP
0140
0510
0000
0BE4
2405
7FFE
5000
2400
0BFC
ENDCHAR
STARTCHAR edieresis
ENCODING 235
SWIDTH 910 0
DWIDTH 8 0
BBX 8 8 0 0
BITMAP
0250
0000
0BE4
2405
7FFE
5000
2400
0BFC
ENDCHAR
STARTCHAR igrave
ENCODING 236
SWIDTH 287 0
DWIDTH 3 0
BBX 2 9 0 0
BITMAP
80
60
00
20
20
20
20
20
20
ENDCHAR
STARTCHAR iacute
ENCODING 237
SWIDTH 287 0
DWIDTH 3 0
BBX 2 9 1 0
BITMAP
20
80
00
80
80
80
80
80
80
ENDCHAR
STARTCHAR icircumflex
ENCODING 238
SWIDTH 287 0
DWIDTH 3 0
BBX 3 9 0 0
BITMAP
60
44
00
20
20
20
20
20
20
ENDCHAR
STARTCHAR idieresis
ENCODING 239
SWIDTH 287 0
DWIDTH 3 0
BBX 3 8 0 0
BITMAP
88
00
20
20
20
20
20
20
ENDCHAR
STARTCHAR eth
ENCODING 240
SWIDTH 910 0
DWIDTH 8 0
BBX 8 6 0 0
BITMAP
3FE4
2019
FF02
2002
2019
3FE4
ENDCHAR
STARTCHAR ntilde
ENCODING 241
SWIDTH 933 0
DWIDTH 8 0
BBX 7 8 1 0
BITMAP
1F40
0000
9BE0
E424
8004
8004
8004
8004
ENDCHAR
STARTCHAR ograve
ENCODING 242
SWIDTH 983 0
DWIDTH 9 0
BBX 9 9 0 0
BITMAP
020000
008000
000000
0BF800
240600
500140
500140
240600
0BF800
ENDCHAR
STARTCHAR oacute
ENCODING 243
SWIDTH 983 0
DWIDTH 9 0
BBX 9 9 0 0
BITMAP
002000
008000
000000
0BF800
240600
500140
500140
240600
0BF800
ENDCHAR
STARTCHAR ocircumflex
ENCODING 244
SWIDTH 983 0
DWIDTH 9 0
BBX 9 9 0 0
BITMAP
008000
011000
000000
0BF800
240600
500140
500140
240600
0BF800
ENDCHAR
STARTCHAR otilde
ENCODING 245
SWIDTH 983 0
DWIDTH 9 0
BBX 9 8 0 0
BITMAP
03E000
000000
0BF800
240600
500140
500140
240600
0BF800
ENDCHAR
STARTCHAR odieresis
ENCODING 246
SWIDTH 983 0
DWIDTH 9 0
BBX 9 8 0 0
BITMAP
022000
000000
0BF800
240600
500140
500140
240600
0BF800
ENDCHAR
STARTCHAR divide
ENCODING 247
SWIDTH 634 0
DWIDTH 6 0
BBX 5 5 0 1
BITMAP
0400
0000
7FC0
0000
0400
ENDCHAR
STARTCHAR oslash
ENCODING 248
SWIDTH 983 0
DWIDTH 9 0
BBX 9 8 0 -1
BITMAP
000500
0BF800
241600
505140
514140
250600
0FF800
140000
ENDCHAR
STARTCHAR ugrave
ENCODING 249
SWIDTH 931 0
DWIDTH 8 0
BBX 7 9 1 0
BITMAP
1400
0500
0000
8014
8014
8014
8014
8074
7F94
ENDCHAR
STARTCHAR uacute
ENCODING 250
SWIDTH 931 0
DWIDTH 8 0
BBX 7 9 1 0
BITMAP
0140
0600
0000
8014
8014
8014
8014
8074
7F94
ENDCHAR
STARTCHAR ucircumflex
ENCODING 251
SWIDTH 931 0
DWIDTH 8 0
BBX 7 9 1 0
BITMAP
0500
1440
0000
8014
8014
8014
8014
8074
7F94
ENDCHAR
STARTCHAR udieresis
ENCODING 252
SWIDTH 931 0
DWIDTH 8 0
BBX 7 8 1 0
BITMAP
0940
0000
8014
8014
8014
8014
8074
7F94
ENDCHAR
STARTCHAR yacute
ENCODING 253
SWIDTH 911 0
DWIDTH 8 0
BBX 8 9 0 0
BITMAP
0050
0140
0000
5005
5005
241D
1BE5
0018
7FE4
ENDCHAR
STARTCHAR thorn
ENCODING 254
SWIDTH 787 0
DWIDTH 7 0
BBX 6 6 1 0
BITMAP
8000
FF80
8050
8050
FF80
8000
ENDCHAR
STARTCHAR ydieresis
ENCODING 255
SWIDTH 911 0
DWIDTH 8 0
BBX 8 8 0 0
BITMAP
0550
0000
5005
5005
241D
1BE5
0018
7FE4
ENDCHAR
STARTCHAR Amacron
ENCODING 256
SWIDTH 812 0
DWIDTH 7 0
BBX 7 8 0 0
BITMAP
0BC0
0000
0340
0580
0850
1020
3FF4
9008
ENDCHAR
STARTCHAR amacron
ENCODING 257
SWIDTH 888 0
DWIDTH 8 0
BBX 7 8 0 0
BITMAP
07C0
0000
3FE4
0008
06BC
2508
501C
2FE8
ENDCHAR
STARTCHAR Abreve
ENCODING 258
SWIDTH 812 0
DWIDTH 7 0
BBX 7 8 0 0
BITMAP
0B80
0000
0340
0580
0850
1020
3FF4
9008
ENDCHAR
STARTCHAR abreve
ENCODING 259
SWIDTH 888 0
DWIDTH 8 0
BBX 7 8 0 0
BITMAP
07D0
0000
3FE4
0008
06BC
2508
501C
2FE8
ENDCHAR
STARTCHAR Aogonek
ENCODING 260
SWIDTH 812 0
DWIDTH 7 0
BBX 8 8 0 -2
BITMAP
0240
0580
0850
1020
3FF4
9008
0004
000E
ENDCHAR
STARTCHAR aogonek
ENCODING 261
SWIDTH 888 0
DWIDTH 8 0
BBX 8 8 0 -2
BITMAP
3FE4
0008
06BC
2508
5018
2FE8
0004
000E
ENDCHAR
STARTCHAR Cacute
ENCODING 262
SWIDTH 869 0
DWIDTH 8 0
BBX 8 9 0 0
BITMAP
0020
0080
0000
0BFD
2400
5000
5000
2400
0BFD
ENDCHAR
STARTCHAR cacute
ENCODING 263
SWIDTH 869 0
DWIDTH 8 0
BBX 8 9 0 0
BITMAP
0020
0080
0000
0BFD
2400
5000
5000
2400
0BFD
ENDCHAR
STARTCHAR Ccircumflex
ENCODING 264
SWIDTH 869 0
DWIDTH 8 0
BBX 8 9 0 0
BITMAP
0180
0110
0000
0BFD
2400
5000
5000
2400
0BFD
ENDCHAR
STARTCHAR ccircumflex
ENCODING 265
SWIDTH 869 0
DWIDTH 8 0
BBX 8 9 0 0
BITMAP
0180
0110
0000
0BFD
2400
5000
5000
2400
0BFD
ENDCHAR
STARTCHAR Cdotaccent
ENCODING 266
SWIDTH 869 0
DWIDTH 8 0
BBX 8 8 0 0
BITMAP
0080
0000
0BFD
2400
5000
5000
2400
0BFD
ENDCHAR
STARTCHAR cdotaccent
ENCODING 267
SWIDTH 869 0
DWIDTH 8 0
BBX 8 8 0 0
BITMAP
0080
0000
0BFD
2400
5000
5000
2400
0BFD
ENDCHAR
STARTCHAR Ccaron
ENCODING 268
SWIDTH 869 0
DWIDTH 8 0
BBX 8 9 0 0
BITMAP
0110
0180
0000
0BFD
2400
5000
5000
2400
0BFD
ENDCHAR
STARTCHAR ccaron
ENCODING 269
SWIDTH 869 0
DWIDTH 8 0
BBX 8 9 0 0
BITMAP
0110
0180
0000
0BFD
2400
5000
5000
2400
0BFD
ENDCHAR
STARTCHAR Dcaron
ENCODING 270
SWIDTH 910 0
DWIDTH 8 0
BBX 7 9 1 0
BITMAP
1100
0800
0000
FF90
8024
8008
8008
8064
FFD0
ENDCHAR
STARTCHAR dcaron
ENCODING 271
SWIDTH 910 0
DWIDTH 8 0
BBX 7 9 1 0
BITMAP
1100
0800
0000
FF90
8024
8008
8008
8064
FFD0
ENDCHAR
STARTCHAR Dcroat
ENCODING 272
SWIDTH 910 0
DWIDTH 8 0
BBX 8 6 0 0
BITMAP
3FE4
2019
FF02
2002
2019
3FE4
ENDCHAR
STARTCHAR dcroat
ENCODING 273
SWIDTH 910 0
DWIDTH 8 0
BBX 8 6 0 0
BITMAP
3FE4
2019
FF02
2002
2019
3FE4
ENDCHAR
STARTCHAR Emacron
ENCODING 274
SWIDTH 754 0
DWIDTH 7 0
BBX 5 8 1 0
BITMAP
2E00
0000
FFC0
8000
FF80
8000
8000
FFC0
ENDCHAR
STARTCHAR emacron
ENCODING 275
SWIDTH 910 0
DWIDTH 8 0
BBX 8 8 0 0
BITMAP
03D0
0000
0BE4
2405
7FFE
5000
2400
0BFC
ENDCHAR
STARTCHAR Ebreve
ENCODING 276
SWIDTH 754 0
DWIDTH 7 0
BBX 5 8 1 0
BITMAP
2E00
0000
FFC0
8000
FF80
8000
8000
FFC0
ENDCHAR
STARTCHAR ebreve
ENCODING 277
SWIDTH 910 0
DWIDTH 8 0
BBX 8 8 0 0
BITMAP
03D0
0000
0BE4
2405
7FFE
5000
2400
0BFC
ENDCHAR
STARTCHAR Edotaccent
ENCODING 278
SWIDTH 754 0
DWIDTH 7 0
BBX 5 8 1 0
BITMAP
0800
0000
FFC0
8000
FF80
8000
8000
FFC0
ENDCHAR
STARTCHAR edotaccent
ENCODING 279
SWIDTH 910 0
DWIDTH 8 0
BBX 8 8 0 0
BITMAP
0140
0000
0BE4
2405
7FFE
5000
2400
0BFC
ENDCHAR
STARTCHAR Eogonek
ENCODING 280
SWIDTH 754 0
DWIDTH 7 0
BBX 5 8 1 -2
BITMAP
FFC0
8000
FF80
8000
8000
FFC0
0100
02C0
ENDCHAR
STARTCHAR eogonek
ENCODING 281
SWIDTH 910 0
DWIDTH 8 0
BBX 8 7 0 -1
BITMAP
0BE4
2405
7FFE
5000
2400
0BFC
001D
ENDCHAR
STARTCHAR Ecaron
ENCODING 282
SWIDTH 754 0
DWIDTH 7 0
BBX 5 9 1 0
BITMAP
1100
0800
0000
FFC0
8000
FF80
8000
8000
FFC0
ENDCHAR
STARTCHAR ecaron
ENCODING 283
SWIDTH 910 0
DWIDTH 8 0
BBX 8 9 0 0
BITMAP
0510
0140
0000
0BE4
2405
7FFE
5000
2400
0BFC
ENDCHAR
STARTCHAR Gcircumflex
ENCODING 284
SWIDTH 910 0
DWIDTH 8 0
BBX 8 9 0 0
BITMAP
0080
0110
0000
0BFD
2400
5000
50BD
2405
0BF9
ENDCHAR
STARTCHAR gcircumflex
ENCODING 285
SWIDTH 910 0
DWIDTH 8 0
BBX 8 9 0 0
BITMAP
0080
0110
0000
0BFD
2400
5000
50BD
2405
0BF9
ENDCHAR
STARTCHAR Gbreve
ENCODING 286
SWIDTH 910 0
DWIDTH 8 0
BBX 8 8 0 0
BITMAP
02E0
0000
0BFD
2400
5000
50BD
2405
0BF9
ENDCHAR
STARTCHAR gbreve
ENCODING 287
SWIDTH 910 0
DWIDTH 8 0
BBX 8 8 0 0
BITMAP
02E0
0000
0BFD
2400
5000
50BD
2405
0BF9
ENDCHAR
STARTCHAR Gdotaccent
ENCODING 288
SWIDTH 910 0
DWIDTH 8 0
BBX 8 8 0 0
BITMAP
0080
0000
0BFD
2400
5000
50BD
2405
0BF9
ENDCHAR
STARTCHAR gdotaccent
ENCODING 289
SWIDTH 910 0
DWIDTH 8 0
BBX 8 8 0 0
BITMAP
0080
0000
0BFD
2400
5000
50BD
2405
0BF9
ENDCHAR
STARTCHAR Gcommaaccent
ENCODING 290
SWIDTH 910 0
DWIDTH 8 0
BBX 8 9 0 -3
BITMAP
0BFD
2400
5000
50BD
2405
0BF9
0000
0080
0080
ENDCHAR
STARTCHAR gcommaaccent
ENCODING 291
SWIDTH 910 0
DWIDTH 8 0
BBX 8 9 0 -3
BITMAP
0BFD
2400
5000
50BD
2405
0BF9
0000
0080
0080
ENDCHAR
STARTCHAR Hcircumflex
ENCODING 292
SWIDTH 949 0
DWIDTH 9 0
BBX 7 9 1 0
BITMAP
0600
0440
0000
8008
8008
FFF8
8008
8008
8008
ENDCHAR
STARTCHAR hcircumflex
ENCODING 293
SWIDTH 949 0
DWIDTH 9 0
BBX 7 9 1 0
BITMAP
0600
0440
0000
8008
8008
FFF8
8008
8008
8008
ENDCHAR
STARTCHAR Hbar
ENCODING 294
SWIDTH 949 0
DWIDTH 9 0
BBX 9 6 0 0
BITMAP
200200
BFFF40
200200
3FFE00
200200
200200
ENDCHAR
STARTCHAR hbar
ENCODING 295
SWIDTH 949 0
DWIDTH 9 0
BBX 9 6 0 0
BITMAP
200200
BFFF40
200200
3FFE00
200200
200200
ENDCHAR
STARTCHAR Itilde
ENCODING 296
SWIDTH 287 0
DWIDTH 3 0
BBX 3 8 0 0
BITMAP
F8
00
20
20
20
20
20
20
ENDCHAR
STARTCHAR itilde
ENCODING 297
SWIDTH 287 0
DWIDTH 3 0
BBX 3 8 0 0
BITMAP
F8
00
20
20
20
20
20
20
ENDCHAR
STARTCHAR Imacron
ENCODING 298
SWIDTH 287 0
DWIDTH 3 0
BBX 3 8 0 0
BITMAP
F8
00
20
20
20
20
20
20
ENDCHAR
STARTCHAR imacron
ENCODING 299
SWIDTH 287 0
DWIDTH 3 0
BBX 3 8 0 0
BITMAP
F8
00
20
20
20
20
20
20
ENDCHAR
STARTCHAR Ibreve
ENCODING 300
SWIDTH 287 0
DWIDTH 3 0
BBX 3 8 0 0
BITMAP
B4
00
20
20
20
20
20
20
ENDCHAR
STARTCHAR ibreve
ENCODING 301
SWIDTH 287 0
DWIDTH 3 0
BBX 3 8 0 0
BITMAP
B4
00
20
20
20
20
20
20
ENDCHAR
STARTCHAR Iogonek
ENCODING 302
SWIDTH 287 0
DWIDTH 3 0
BBX 2 8 0 -2
BITMAP
20
20
20
20
20
20
40
B0
ENDCHAR
STARTCHAR iogonek
ENCODING 303
SWIDTH 287 0
DWIDTH 3 0
BBX 2 8 0 -2
BITMAP
20
20
20
20
20
20
40
B0
ENDCHAR
STARTCHAR Idotaccent
ENCODING 304
SWIDTH 287 0
DWIDTH 3 0
BBX 1 8 1 0
BITMAP
80
00
80
80
80
80
80
80
ENDCHAR
STARTCHAR dotlessi
ENCODING 305
SWIDTH 287 0
DWIDTH 3 0
BBX 1 6 1 0
BITMAP
80
80
80
80
80
80
ENDCHAR
STARTCHAR IJ
ENCODING 306
SWIDTH 877 0
DWIDTH 8 0
BBX 6 6 1 0
BITMAP
8020
8020
8020
8020
8060
9F90
ENDCHAR
STARTCHAR ij
ENCODING 307
SWIDTH 877 0
DWIDTH 8 0
BBX 6 6 1 0
BITMAP
8020
8020
8020
8020
8060
9F90
ENDCHAR
STARTCHAR Jcircumflex
ENCODING 308
SWIDTH 590 0
DWIDTH 5 0
BBX 6 9 0 0
BITMAP
0140
0510
0000
0140
0140
0140
0140
0240
FE00
ENDCHAR
STARTCHAR jcircumflex
ENCODING 309
SWIDTH 590 0
DWIDTH 5 0
BBX 6 9 0 0
BITMAP
0140
0510
0000
0140
0140
0140
0140
0240
FE00
ENDCHAR
STARTCHAR Kcommaaccent
ENCODING 310
SWIDTH 806 0
DWIDTH 7 0
BBX 6 9 1 -3
BITMAP
8050
8500
A400
9400
8600
8050
0000
0800
0800
ENDCHAR
STARTCHAR kcommaaccent
ENCODING 311
SWIDTH 867 0
DWIDTH 8 0
BBX 6 9 1 -3
BITMAP
8020
8180
FE00
8190
8020
8010
0000
0500
0400
ENDCHAR
STARTCHAR kgreenlandic
ENCODING 312
SWIDTH 867 0
DWIDTH 8 0
BBX 6 6 1 0
BITMAP
8020
8180
FE00
8190
8020
8010
ENDCHAR
STARTCHAR Lacute
ENCODING 313
SWIDTH 701 0
DWIDTH 6 0
BBX 5 9 1 0
BITMAP
2000
8000
0000
8000
8000
8000
8000
8000
FFC0
ENDCHAR
STARTCHAR lacute
ENCODING 314
SWIDTH 709 0
DWIDTH 6 0
BBX 6 9 1 0
BITMAP
2000
8000
0000
8000
8000
8000
8000
8000
7FD0
ENDCHAR
STARTCHAR Lcommaaccent
ENCODING 315
SWIDTH 701 0
DWIDTH 6 0
BBX 5 9 1 -3
BITMAP
8000
8000
8000
8000
8000
FFC0
0000
0800
0800
ENDCHAR
STARTCHAR lcommaaccent
ENCODING 316
SWIDTH 709 0
DWIDTH 6 0
BBX 6 9 1 -3
BITMAP
8000
8000
8000
8000
8000
7FD0
0000
0800
0800
ENDCHAR
STARTCHAR Lcaron
ENCODING 317
SWIDTH 701 0
DWIDTH 6 0
BBX 5 6 1 0
BITMAP
8200
8100
8000
8000
8000
FFC0
ENDCHAR
STARTCHAR lcaron
ENCODING 318
SWIDTH 709 0
DWIDTH 6 0
BBX 6 6 1 0
BITMAP
8200
8100
8000
8000
8000
7FD0
ENDCHAR
STARTCHAR Ldot
ENCODING 319
SWIDTH 701 0
DWIDTH 6 0
BBX 5 6 1 0
BITMAP
8000
8000
8200
8000
8000
FFC0
ENDCHAR
STARTCHAR ldotaccent
ENCODING 320
SWIDTH 709 0
DWIDTH 6 0
BBX 6 6 1 0
BITMAP
8000
8000
8200
8000
8000
7FD0
ENDCHAR
STARTCHAR Lslash
ENCODING 321
SWIDTH 701 0
DWIDTH 6 0
BBX 6 6 0 0
BITMAP
2000
2000
2900
A000
2000
3FF0
ENDCHAR
STARTCHAR lslash
ENCODING 322
SWIDTH 709 0
DWIDTH 6 0
BBX 7 6 0 0
BITMAP
2000
2000
2900
A000
2000
1FF4
ENDCHAR
STARTCHAR Nacute
ENCODING 323
SWIDTH 936 0
DWIDTH 8 0
BBX 7 9 1 0
BITMAP
0180
0600
0000
D004
A404
8904
8244
8094
8024
ENDCHAR
STARTCHAR nacute
ENCODING 324
SWIDTH 933 0
DWIDTH 8 0
BBX 7 9 1 0
BITMAP
0140
0500
0000
9BE0
E424
8004
8004
8004
8004
ENDCHAR
STARTCHAR Ncommaaccent
ENCODING 325
SWIDTH 936 0
DWIDTH 8 0
BBX 7 9 1 -3
BITMAP
D004
A404
8904
8244
8094
8024
0000
0200
0100
ENDCHAR
STARTCHAR ncommaaccent
ENCODING 326
SWIDTH 933 0
DWIDTH 8 0
BBX 7 9 1 -3
BITMAP
9BE0
E424
8004
8004
8004
8004
0000
0200
0500
ENDCHAR
STARTCHAR Ncaron
ENCODING 327
SWIDTH 936 0
DWIDTH 8 0
BBX 7 9 1 0
BITMAP
1440
0600
0000
D004
A404
8904
8244
8094
8024
ENDCHAR
STARTCHAR ncaron
ENCODING 328
SWIDTH 933 0
DWIDTH 8 0
BBX 7 9 1 0
BITMAP
1440
0500
0000
9BE0
E424
8004
8004
8004
8004
ENDCHAR
STARTCHAR napostrophe
ENCODING 329
SWIDTH 1025 0
DWIDTH 9 0
BBX 9 6 0 0
BITMAP
85BD00
8E4200
040140
040140
040140
040140
ENDCHAR
STARTCHAR Eng
ENCODING 330
SWIDTH 936 0
DWIDTH 8 0
BBX 7 6 1 0
BITMAP
D004
9804
8204
8094
8024
8BE0
ENDCHAR
STARTCHAR eng
ENCODING 331
SWIDTH 933 0
DWIDTH 8 0
BBX 7 6 1 0
BITMAP
9BE0
E424
8004
8004
8014
87E0
ENDCHAR
STARTCHAR Omacron
ENCODING 332
SWIDTH 983 0
DWIDTH 9 0
BBX 9 8 0 0
BITMAP
02E000
000000
0BF800
240600
500140
500140
240600
0BF800
ENDCHAR
STARTCHAR omacron
ENCODING 333
SWIDTH 983 0
DWIDTH 9 0
BBX 9 8 0 0
BITMAP
02E000
000000
0BF800
240600
500140
500140
240600
0BF800
ENDCHAR
STARTCHAR Obreve
ENCODING 334
SWIDTH 983 0
DWIDTH 9 0
BBX 9 8 0 0
BITMAP
02E000
000000
0BF800
240600
500140
500140
240600
0BF800
ENDCHAR
STARTCHAR obreve
ENCODING 335
SWIDTH 983 0
DWIDTH 9 0
BBX 9 8 0 0
BITMAP
02E000
000000
0BF800
240600
500140
500140
240600
0BF800
ENDCHAR
STARTCHAR Ohungarumlaut
ENCODING 336
SWIDTH 983 0
DWIDTH 9 0
BBX 9 9 0 0
BITMAP
005000
015000
000000
0BF800
240600
500140
500140
240600
0BF800
ENDCHAR
STARTCHAR ohungarumlaut
ENCODING 337
SWIDTH 983 0
DWIDTH 9 0
BBX 9 9 0 0
BITMAP
005000
015000
000000
0BF800
240600
500140
500140
240600
0BF800
ENDCHAR
STARTCHAR OE
ENCODING 338
SWIDTH 1338 0
DWIDTH 12 0
BBX 12 6 0 0
BITMAP
0BFFFD
240800
500BFC
500800
240800
0BFFFD
ENDCHAR
STARTCHAR oe
ENCODING 339
SWIDTH 1688 0
DWIDTH 15 0
BBX 15 6 0 0
BITMAP
0BF82F90
24079014
5001FFF8
50014000
2407D000
0BF96FF4
ENDCHAR
STARTCHAR Racute
ENCODING 340
SWIDTH 833 0
DWIDTH 8 0
BBX 6 9 1 0
BITMAP
0200
0800
0000
FF90
8060
FF90
8040
8050
8020
ENDCHAR
STARTCHAR racute
ENCODING 341
SWIDTH 609 0
DWIDTH 5 0
BBX 5 9 1 0
BITMAP
0500
1400
0000
9B40
E400
8000
8000
8000
8000
ENDCHAR
STARTCHAR Rcommaaccent
ENCODING 342
SWIDTH 833 0
DWIDTH 8 0
BBX 6 9 1 -3
BITMAP
FF90
8060
FF90
8040
8050
8020
0000
0800
0800
ENDCHAR
STARTCHAR rcommaaccent
ENCODING 343
SWIDTH 609 0
DWIDTH 5 0
BBX 5 9 1 -3
BITMAP
9B40
E400
8000
8000
8000
8000
0000
8000
4000
ENDCHAR
STARTCHAR Rcaron
ENCODING 344
SWIDTH 833 0
DWIDTH 8 0
BBX 6 9 1 0
BITMAP
1100
1800
0000
FF90
8060
FF90
8040
8050
8020
ENDCHAR
STARTCHAR rcaron
ENCODING 345
SWIDTH 609 0
DWIDTH 5 0
BBX 5 9 1 0
BITMAP
4100
1400
0000
9B40
E400
8000
8000
8000
8000
ENDCHAR
STARTCHAR Sacute
ENCODING 346
SWIDTH 787 0
DWIDTH 7 0
BBX 7 9 0 0
BITMAP
0080
0200
0000
2FF0
6000
1A40
0060
0014
7FE0
ENDCHAR
STARTCHAR sacute
ENCODING 347
SWIDTH 787 0
DWIDTH 7 0
BBX 7 9 0 0
BITMAP
0080
0200
0000
2FF0
6000
1A40
0060
0014
7FE0
ENDCHAR
STARTCHAR Scircumflex
ENCODING 348
SWIDTH 787 0
DWIDTH 7 0
BBX 7 9 0 0
BITMAP
0200
0440
0000
2FF0
6000
1A40
0060
0014
7FE0
ENDCHAR
STARTCHAR scircumflex
ENCODING 349
SWIDTH 787 0
DWIDTH 7 0
BBX 7 9 0 0
BITMAP
0200
0440
0000
2FF0
6000
1A40
0060
0014
7FE0
ENDCHAR
STARTCHAR Scedilla
ENCODING 350
SWIDTH 787 0
DWIDTH 7 0
BBX 7 8 0 -2
BITMAP
2FF0
6000
1A40
0060
0014
7FE0
0240
0740
ENDCHAR
STARTCHAR scedilla
ENCODING 351
SWIDTH 787 0
DWIDTH 7 0
BBX 7 8 0 -2
BITMAP
2FF0
6000
1A40
0060
0014
7FE0
0240
0740
ENDCHAR
STARTCHAR Scaron
ENCODING 352
SWIDTH 787 0
DWIDTH 7 0
BBX 7 9 0 0
BITMAP
0440
0200
0000
2FF0
6000
1A40
0060
0014
7FE0
ENDCHAR
STARTCHAR scaron
ENCODING 353
SWIDTH 787 0
DWIDTH 7 0
BBX 7 9 0 0
BITMAP
0440
0200
0000
2FF0
6000
1A40
0060
0014
7FE0
ENDCHAR
STARTCHAR Tcommaaccent
ENCODING 354
SWIDTH 708 0
DWIDTH 6 0
BBX 7 9 0 -3
BITMAP
BFF4
0100
0100
0100
0100
0100
0000
0100
0500
ENDCHAR
STARTCHAR tcommaaccent
ENCODING 355
SWIDTH 708 0
DWIDTH 6 0
BBX 7 9 0 -3
BITMAP
BFF4
0100
0100
0100
0100
0100
0000
0100
0500
ENDCHAR
STARTCHAR Tcaron
ENCODING 356
SWIDTH 708 0
DWIDTH 6 0
BBX 7 9 0 0
BITMAP
1440
0500
0000
BFF4
0100
0100
0100
0100
0100
ENDCHAR
STARTCHAR tcaron
ENCODING 357
SWIDTH 708 0
DWIDTH 6 0
BBX 7 9 0 0
BITMAP
1440
0500
0000
BFF4
0100
0100
0100
0100
0100
ENDCHAR
STARTCHAR Tbar
ENCODING 358
SWIDTH 708 0
DWIDTH 6 0
BBX 7 6 0 0
BITMAP
BFF4
0100
7FE0
0100
0100
0100
ENDCHAR
STARTCHAR tbar
ENCODING 359
SWIDTH 708 0
DWIDTH 6 0
BBX 7 6 0 0
BITMAP
BFF4
0100
7FE0
0100
0100
0100
ENDCHAR
STARTCHAR Utilde
ENCODING 360
SWIDTH 891 0
DWIDTH 8 0
BBX 6 8 1 0
BITMAP
1F40
0000
8010
8010
8010
8020
9060
6F90
ENDCHAR
STARTCHAR utilde
ENCODING 361
SWIDTH 931 0
DWIDTH 8 0
BBX 7 8 1 0
BITMAP
1F80
0000
8014
8014
8014
8014
8074
7F94
ENDCHAR
STARTCHAR Umacron
ENCODING 362
SWIDTH 891 0
DWIDTH 8 0
BBX 6 8 1 0
BITMAP
1F40
0000
8010
8010
8010
8020
9060
6F90
ENDCHAR
STARTCHAR umacron
ENCODING 363
SWIDTH 931 0
DWIDTH 8 0
BBX 7 8 1 0
BITMAP
0F40
0000
8014
8014
8014
8014
8074
7F94
ENDCHAR
STARTCHAR Ubreve
ENCODING 364
SWIDTH 891 0
DWIDTH 8 0
BBX 6 8 1 0
BITMAP
1F40
0000
8010
8010
8010
8020
9060
6F90
ENDCHAR
STARTCHAR ubreve
ENCODING 365
SWIDTH 931 0
DWIDTH 8 0
BBX 7 8 1 0
BITMAP
0F40
0000
8014
8014
8014
8014
8074
7F94
ENDCHAR
STARTCHAR Uring
ENCODING 366
SWIDTH 891 0
DWIDTH 8 0
BBX 6 9 1 0
BITMAP
0F00
0F00
0000
8010
8010
8010
8020
9060
6F90
ENDCHAR
STARTCHAR uring
ENCODING 367
SWIDTH 931 0
DWIDTH 8 0
BBX 7 9 1 0
BITMAP
0B00
0B00
0000
8014
8014
8014
8014
8074
7F94
ENDCHAR
STARTCHAR Uhungarumlaut
ENCODING 368
SWIDTH 891 0
DWIDTH 8 0
BBX 6 9 1 0
BITMAP
0580
0500
0000
8010
8010
8010
8020
9060
6F90
ENDCHAR
STARTCHAR uhungarumlaut
ENCODING 369
SWIDTH 931 0
DWIDTH 8 0
BBX 7 9 1 0
BITMAP
0580
0940
0000
8014
8014
8014
8014
8074
7F94
ENDCHAR
STARTCHAR Uogonek
ENCODING 370
SWIDTH 891 0
DWIDTH 8 0
BBX 6 8 1 -2
BITMAP
8010
8010
8010
8020
9060
6F90
0400
0B00
ENDCHAR
STARTCHAR uogonek
ENCODING 371
SWIDTH 931 0
DWIDTH 8 0
BBX 7 8 1 -2
BITMAP
8014
8014
8014
8014
8074
7F94
0010
002C
ENDCHAR
STARTCHAR Wcircumflex
ENCODING 372
SWIDTH 1266 0
DWIDTH 11 0
BBX 11 9 0 0
BITMAP
002400
004400
000000
402408
205804
208820
148120
090250
060180
ENDCHAR
STARTCHAR wcircumflex
ENCODING 373
SWIDTH 1266 0
DWIDTH 11 0
BBX 11 9 0 0
BITMAP
002400
004400
000000
402408
205804
208820
148120
090250
060180
ENDCHAR
STARTCHAR Ycircumflex
ENCODING 374
SWIDTH 763 0
DWIDTH 7 0
BBX 7 9 0 0
BITMAP
0200
0440
0000
5024
1490
0A40
0200
0200
0200
ENDCHAR
STARTCHAR ycircumflex
ENCODING 375
SWIDTH 911 0
DWIDTH 8 0
BBX 8 9 0 0
BITMAP
0140
0410
0000
5005
5005
241D
1BE5
0018
7FE4
ENDCHAR
STARTCHAR Ydieresis
ENCODING 376
SWIDTH 763 0
DWIDTH 7 0
BBX 7 8 0 0
BITMAP
0880
0000
5024
1490
0A40
0200
0200
0200
ENDCHAR
STARTCHAR Zacute
ENCODING 377
SWIDTH 728 0
DWIDTH 7 0
BBX 6 9 0 0
BITMAP
0080
0200
0000
7FE0
0040
0100
0400
1000
7FF0
ENDCHAR
STARTCHAR zacute
ENCODING 378
SWIDTH 728 0
DWIDTH 7 0
BBX 6 9 0 0
BITMAP
0080
0200
0000
7FE0
0040
0100
0400
1000
7FF0
ENDCHAR
STARTCHAR Zdotaccent
ENCODING 379
SWIDTH 728 0
DWIDTH 7 0
BBX 6 8 0 0
BITMAP
0200
0000
7FE0
0040
0100
0400
1000
7FF0
ENDCHAR
STARTCHAR zdotaccent
ENCODING 380
SWIDTH 728 0
DWIDTH 7 0
BBX 6 8 0 0
BITMAP
0200
0000
7FE0
0040
0100
0400
1000
7FF0
ENDCHAR
STARTCHAR Zcaron
ENCODING 381
SWIDTH 728 0
DWIDTH 7 0
BBX 6 9 0 0
BITMAP
0440
0600
0000
7FE0
0040
0100
0400
1000
7FF0
ENDCHAR
STARTCHAR zcaron
ENCODING 382
SWIDTH 728 0
DWIDTH 7 0
BBX 6 9 0 0
BITMAP
0440
0600
0000
7FE0
0040
0100
0400
1000
7FF0
ENDCHAR
STARTCHAR florin
ENCODING 402
SWIDTH 835 0
DWIDTH 8 0
BBX 8 6 0 0
BITMAP
007D
0080
0BF0
0200
0600
BD00
ENDCHAR
STARTCHAR AEacute
ENCODING 508
SWIDTH 1172 0
DWIDTH 11 0
BBX 10 9 0 0
BITMAP
000200
000900
000000
01FFE0
025000
097FE0
145000
3FD000
907FF0
ENDCHAR
STARTCHAR aeacute
ENCODING 509
SWIDTH 1551 0
DWIDTH 14 0
BBX 14 9 0 0
BITMAP
00014000
00050000
00000000
3FE5BE40
00090040
06BFFFD0
25050000
501B4000
2FE5BFC0
ENDCHAR
STARTCHAR Oslashacute
ENCODING 510
SWIDTH 983 0
DWIDTH 9 0
BBX 9 10 0 -1
BITMAP
002000
008000
000500
0BF800
241600
505140
514140
250600
0FF800
140000
ENDCHAR
STARTCHAR oslashacute
ENCODING 511
SWIDTH 983 0
DWIDTH 9 0
BBX 9 10 0 -1
BITMAP
002000
008000
000500
0BF800
241600
505140
514140
250600
0FF800
140000
ENDCHAR
STARTCHAR dotlessj
ENCODING 567
SWIDTH 590 0
DWIDTH 5 0
BBX 5 6 0 0
BITMAP
0140
0140
0140
0140
0240
FE00
ENDCHAR
STARTCHAR circumflex
ENCODING 710
SWIDTH 527 0
DWIDTH 5 0
BBX 3 2 1 5
BITMAP
60
44
ENDCHAR
STARTCHAR caron
ENCODING 711
SWIDTH 527 0
DWIDTH 5 0
BBX 3 2 1 5
BITMAP
44
60
ENDCHAR
STARTCHAR breve
ENCODING 728
SWIDTH 527 0
DWIDTH 5 0
BBX 3 1 1 5
BITMAP
B8
ENDCHAR
STARTCHAR dotaccent
ENCODING 729
SWIDTH 527 0
DWIDTH 5 0
BBX 1 1 2 5
BITMAP
80
ENDCHAR
STARTCHAR ring
ENCODING 730
SWIDTH 527 0
DWIDTH 5 0
BBX 3 2 1 5
BITMAP
B4
B4
ENDCHAR
STARTCHAR ogonek
ENCODING 731
SWIDTH 527 0
DWIDTH 5 0
BBX 3 2 1 -2
BITMAP
40
74
ENDCHAR
STARTCHAR tilde
ENCODING 732
SWIDTH 527 0
DWIDTH 5 0
BBX 3 1 1 5
BITMAP
F8
ENDCHAR
STARTCHAR hungarumlaut
ENCODING 733
SWIDTH 527 0
DWIDTH 5 0
BBX 3 2 1 5
BITMAP
14
54
ENDCHAR
STARTCHAR commaaccent
ENCODING 806
SWIDTH 527 0
DWIDTH 5 0
BBX 1 2 2 -3
BITMAP
80
40
ENDCHAR
STARTCHAR mu
ENCODING 956
SWIDTH 705 0
DWIDTH 6 0
BBX 6 6 0 -2
BITMAP
2050
1050
21C0
6E80
4000
8000
ENDCHAR
STARTCHAR Wgrave
ENCODING 7808
SWIDTH 1266 0
DWIDTH 11 0
BBX 11 9 0 0
BITMAP
008000
002000
000000
402408
205804
208820
148120
090250
060180
ENDCHAR
STARTCHAR wgrave
ENCODING 7809
SWIDTH 1266 0
DWIDTH 11 0
BBX 11 9 0 0
BITMAP
008000
002000
000000
402408
205804
208820
148120
090250
060180
ENDCHAR
STARTCHAR Wacute
ENCODING 7810
SWIDTH 1266 0
DWIDTH 11 0
BBX 11 9 0 0
BITMAP
000800
002400
000000
402408
205804
208820
148120
090250
060180
ENDCHAR
STARTCHAR wacute
ENCODING 7811
SWIDTH 1266 0
DWIDTH 11 0
BBX 11 9 0 0
BITMAP
000800
002400
000000
402408
205804
208820
148120
090250
060180
ENDCHAR
STARTCHAR Wdieresis
ENCODING 7812
SWIDTH 1266 0
DWIDTH 11 0
BBX 11 8 0 0
BITMAP
008800
000000
402408
205804
208820
148120
090250
060180
ENDCHAR
STARTCHAR wdieresis
ENCODING 7813
SWIDTH 1266 0
DWIDTH 11 0
BBX 11 8 0 0
BITMAP
008800
000000
402408
205804
208820
148120
090250
060180
ENDCHAR
STARTCHAR Ygrave
ENCODING 7922
SWIDTH 763 0
DWIDTH 7 0
BBX 7 9 0 0
BITMAP
0800
0200
0000
5024
1490
0A40
0200
0200
0200
ENDCHAR
STARTCHAR ygrave
ENCODING 7923
SWIDTH 911 0
DWIDTH 8 0
BBX 8 9 0 0
BITMAP
0500
0140
0000
5005
5005
241D
1BE5
0018
7FE4
ENDCHAR
STARTCHAR endash
ENCODING 8211
SWIDTH 419 0
DWIDTH 4 0
BBX 4 1 0 3
BITMAP
BE
ENDCHAR
STARTCHAR emdash
ENCODING 8212
SWIDTH 1000 0
DWIDTH 9 0
BBX 9 1 0 3
BITMAP
FFFFC0
ENDCHAR
STARTCHAR quoteleft
ENCODING 8216
SWIDTH 163 0
DWIDTH 1 0
BBX 1 2 0 4
BITMAP
40
80
ENDCHAR
STARTCHAR quoteright
ENCODING 8217
SWIDTH 163 0
DWIDTH 1 0
BBX 1 2 0 4
BITMAP
80
80
ENDCHAR
STARTCHAR quotesinglbase
ENCODING 8218
SWIDTH 163 0
DWIDTH 1 0
BBX 1 2 0 -1
BITMAP
80
80
ENDCHAR
STARTCHAR quotedblleft
ENCODING 8220
SWIDTH 303 0
DWIDTH 3 0
BBX 3 2 0 4
BITMAP
54
94
ENDCHAR
STARTCHAR quotedblright
ENCODING 8221
SWIDTH 303 0
DWIDTH 3 0
BBX 3 2 0 4
BITMAP
94
90
ENDCHAR
STARTCHAR quotedblbase
ENCODING 8222
SWIDTH 303 0
DWIDTH 3 0
BBX 3 2 0 -1
BITMAP
94
90
ENDCHAR
STARTCHAR dagger
ENCODING 8224
SWIDTH 500 0
DWIDTH 5 0
BBX 4 6 0 0
BITMAP
08
08
7E
08
08
08
ENDCHAR
STARTCHAR daggerdbl
ENCODING 8225
SWIDTH 500 0
DWIDTH 5 0
BBX 4 6 0 0
BITMAP
08
08
7E
7E
08
08
ENDCHAR
STARTCHAR bullet
ENCODING 8226
SWIDTH 352 0
DWIDTH 3 0
BBX 2 2 1 2
BITMAP
D0
D0
ENDCHAR
STARTCHAR ellipsis
ENCODING 8230
SWIDTH 555 0
DWIDTH 5 0
BBX 5 1 0 0
BITMAP
9980
ENDCHAR
STARTCHAR perthousand
ENCODING 8240
SWIDTH 1401 0
DWIDTH 13 0
BBX 12 6 0 0
BITMAP
3D0400
522000
3D4000
016E2E
055262
042E2E
ENDCHAR
STARTCHAR guilsinglleft
ENCODING 8249
SWIDTH 257 0
DWIDTH 2 0
BBX 2 3 0 2
BITMAP
20
80
20
ENDCHAR
STARTCHAR guilsinglright
ENCODING 8250
SWIDTH 257 0
DWIDTH 2 0
BBX 2 3 0 2
BITMAP
50
20
50
ENDCHAR
STARTCHAR fraction
ENCODING 8260
SWIDTH 200 0
DWIDTH 2 0
BBX 6 6 -2 0
BITMAP
0050
0140
0100
0800
1000
5000
ENDCHAR
STARTCHAR Euro
ENCODING 8364
SWIDTH 833 0
DWIDTH 8 0
BBX 7 6 0 0
BITMAP
07F8
1400
BFD0
BFC0
1400
0BF8
ENDCHAR
STARTCHAR trademark
ENCODING 8482
SWIDTH 773 0
DWIDTH 7 0
BBX 6 3 0 3
BITMAP
B920
1620
1590
ENDCHAR
STARTCHAR partialdiff
ENCODING 8706
SWIDTH 790 0
DWIDTH 7 0
BBX 7 6 0 0
BITMAP
0FE0
0024
1F98
6024
5060
2F80
ENDCHAR
STARTCHAR minus
ENCODING 8722
SWIDTH 634 0
DWIDTH 6 0
BBX 5 1 0 3
BITMAP
7FC0
ENDCHAR
STARTCHAR uni2215
ENCODING 8725
SWIDTH 200 0
DWIDTH 2 0
BBX 6 6 -2 0
BITMAP
0050
0140
0100
0800
1000
5000
ENDCHAR
STARTCHAR approxequal
ENCODING 8776
SWIDTH 634 0
DWIDTH 6 0
BBX 5 4 0 2
BITMAP
3940
4780
3940
4780
ENDCHAR
STARTCHAR notequal
ENCODING 8800
SWIDTH 634 0
DWIDTH 6 0
BBX 5 5 0 1
BITMAP
0200
7FC0
0400
7FC0
0400
ENDCHAR
STARTCHAR lessequal
ENCODING 8804
SWIDTH 634 0
DWIDTH 6 0
BBX 5 6 0 0
BITMAP
0180
1A40
6000
1A40
0180
7FC0
ENDCHAR
STARTCHAR greaterequal
ENCODING 8805
SWIDTH 634 0
DWIDTH 6 0
BBX 5 6 0 0
BITMAP
6400
1A40
01C0
1A40
6400
7FC0
ENDCHAR
STARTCHAR fi
ENCODING 64257
SWIDTH 1104 0
DWIDTH 10 0
BBX 8 6 1 0
BITMAP
6FE2
9002
8002
FFE2
8002
8002
ENDCHAR
STARTCHAR fl
ENCODING 64258
SWIDTH 1527 0
DWIDTH 14 0
BBX 13 6 1 0
BITMAP
6FE20000
90020000
80020000
FFE20000
80024000
8000BF80
ENDCHAR
STARTCHAR .notdef
ENCODING -1
SWIDTH 1000 0
DWIDTH 9 0
BBX 1 1 0 0
BITMAP
00
ENDCHAR
ENDFONT
